<?xml version="1.0" encoding="utf-8"?>
<!-- Generator: Adobe Illustrator 19.1.0, SVG Export Plug-In . SVG Version: 6.00 Build 0)  -->
<svg version="1.1" xmlns="http://www.w3.org/2000/svg" xmlns:xlink="http://www.w3.org/1999/xlink" x="0px" y="0px"
	 width="719.8px" height="90.2px" viewBox="0 0 719.8 90.2" style="enable-background:new 0 0 719.8 90.2;" xml:space="preserve">
<g>
	<g>
		<rect x="0" y="3.6" style="fill:#000000;" width="85" height="85"/>
		<rect x="8" y="72.7" style="fill:#FFFFFF;" width="31.9" height="5.3"/>
		<rect x="10.9" y="14.2" style="fill:#FFFFFF;" width="4.7" height="21.2"/>
		<rect x="7.9" y="31.5" style="fill:#FFFFFF;" width="10.6" height="3.9"/>
		<rect x="7.9" y="14.2" style="fill:#FFFFFF;" width="10.6" height="3.9"/>
		<path style="fill:#FFFFFF;" d="M28.7,35.7c-1.7,0-3-0.3-4.2-0.9c-1.1-0.6-2-1.4-2.8-2.2l2.9-3.3c0.6,0.7,1.2,1.2,1.8,1.6
			c0.6,0.4,1.3,0.6,2,0.6c0.9,0,1.6-0.3,2.1-0.8c0.5-0.6,0.8-1.5,0.8-2.7V14.2h4.8v13.9c0,1.3-0.2,2.4-0.5,3.3
			c-0.3,0.9-0.8,1.7-1.5,2.4c-0.6,0.6-1.4,1.1-2.4,1.5C30.9,35.6,29.8,35.7,28.7,35.7"/>
	</g>
	<g>
		<path d="M106.1,3.6h18.7v85.1h-18.7V3.6z"/>
		<path d="M129.8,23.6h18.5v9.2c4.3-5.5,9.7-10.4,19.1-10.4c14,0,22.1,9.2,22.1,24.2v42.2H171V52.4
			c0-8.7-4.1-13.2-11.2-13.2c-7,0-11.5,4.5-11.5,13.2v36.3h-18.5V23.6z"/>
		<path d="M199.4,70.2V39.4h-7.8V23.6h7.8V6.9h18.5v16.6h15.3v15.8h-15.3v27.8c0,4.3,1.8,6.3,6,6.3
			c3.4,0,6.4-0.9,9.1-2.3V86c-3.9,2.3-8.4,3.8-14.6,3.8C207.1,89.8,199.4,85.3,199.4,70.2z"/>
		<path d="M232.7,56.5v-0.2c0-18.6,13.2-33.9,32.2-33.9c21.8,0,31.7,16.9,31.7,35.4c0,1.5-0.1,3.2-0.2,4.9
			h-45.3c1.8,8.4,7.7,12.8,15.9,12.8c6.2,0,10.7-1.9,15.8-6.7l10.6,9.4c-6.1,7.5-14.8,12.2-26.6,12.2
			C247.2,90.2,232.7,76.4,232.7,56.5z M278.6,51c-1.1-8.3-6-13.9-13.7-13.9c-7.7,0-12.6,5.5-14.1,13.9H278.6z"/>
		<path d="M300.1,0h18.5v88.7h-18.5V0z"/>
		<path d="M322.5,0H341v88.7h-18.5V0z"/>
		<path d="M345.6,0H365v16.4h-19.4V0z M346.1,23.6h18.5v65.1h-18.5V23.6z"/>
		<path d="M365.9,77.2L377.6,64c4.9,5.3,9.6,8.5,15.6,8.5c7,0,11.4-4.3,11.4-14.1V3.6h19.2v55.6
			c0,10.1-2.9,17.6-8,22.7c-5.2,5.2-12.9,7.9-22.1,7.9C380.4,89.9,371.7,84.1,365.9,77.2z"/>
		<path d="M454.4,3.6h18.7v85.1h-18.7V3.6z"/>
		<path d="M479.8,3.6H513c26.7,0,45.2,18.3,45.2,42.3v0.2c0,23.9-18.5,42.5-45.2,42.5h-33.2V3.6z M498.5,20.5
			v51.3H513c15.3,0,25.6-10.3,25.6-25.4v-0.2c0-15.1-10.3-25.6-25.6-25.6H498.5z"/>
		<path d="M562.3,3.6h64.2v16.6h-45.6v17.3H621v16.6h-40.1v17.9h46.2v16.6h-64.8V3.6z"/>
		<path d="M666.1,3h17.3l36.5,85.7h-19.6l-7.8-19.1h-36l-7.8,19.1h-19.1L666.1,3z M685.8,53.1l-11.3-27.6
			l-11.3,27.6H685.8z"/>
	</g>
</g>
</svg>
